<svg xmlns="http://www.w3.org/2000/svg" viewBox="0 0 1254 1254" fill="currentColor" fill-rule="evenodd">
  <path d="M 335.00 1027.00 L 336.00 1076.00 L 346.00 1090.00 L 360.00 1095.00 L 894.00 1095.00 L 909.00 1089.00 L 919.00 1070.00 L 917.00 1021.00 L 908.00 1009.00 L 896.00 1004.00 L 357.00 1004.00 L 339.00 1016.00 Z M 432.00 916.00 L 432.00 957.00 L 442.00 971.00 L 450.00 974.00 L 804.00 974.00 L 813.00 970.00 L 822.00 956.00 L 822.00 917.00 L 818.00 908.00 L 804.00 899.00 L 450.00 899.00 L 442.00 902.00 Z M 503.00 825.00 L 503.00 847.00 L 505.00 856.00 L 512.00 865.00 L 521.00 869.00 L 732.00 869.00 L 745.00 861.00 L 748.00 856.00 L 750.00 846.00 L 749.00 819.00 L 746.00 813.00 L 740.00 807.00 L 730.00 803.00 L 523.00 803.00 L 513.00 807.00 L 507.00 813.00 Z M 498.00 431.00 L 476.00 450.00 L 464.00 481.00 L 464.00 658.00 L 472.00 682.00 L 491.00 703.00 L 517.00 714.00 L 622.00 715.00 L 684.00 773.00 L 695.00 774.00 L 700.00 768.00 L 710.00 720.00 L 716.00 715.00 L 738.00 714.00 L 761.00 705.00 L 777.00 691.00 L 789.00 668.00 L 791.00 480.00 L 783.00 456.00 L 759.00 432.00 L 734.00 424.00 L 521.00 424.00 Z M 624.00 639.00 L 629.00 639.00 L 636.00 641.00 L 641.00 644.00 L 647.00 650.00 L 650.00 656.00 L 651.00 660.00 L 651.00 667.00 L 650.00 671.00 L 647.00 677.00 L 639.00 685.00 L 631.00 688.00 L 622.00 688.00 L 614.00 685.00 L 611.00 682.00 L 610.00 682.00 L 608.00 680.00 L 604.00 674.00 L 602.00 667.00 L 602.00 660.00 L 603.00 656.00 L 606.00 650.00 L 613.00 643.00 L 617.00 641.00 Z M 614.00 460.00 L 643.00 460.00 L 670.00 469.00 L 680.00 476.00 L 692.00 489.00 L 698.00 500.00 L 702.00 514.00 L 702.00 534.00 L 697.00 550.00 L 686.00 566.00 L 653.00 595.00 L 648.00 608.00 L 647.00 620.00 L 642.00 624.00 L 611.00 624.00 L 605.00 618.00 L 605.00 606.00 L 610.00 587.00 L 616.00 577.00 L 629.00 563.00 L 650.00 545.00 L 655.00 536.00 L 656.00 521.00 L 650.00 510.00 L 639.00 503.00 L 620.00 502.00 L 610.00 506.00 L 602.00 514.00 L 598.00 523.00 L 597.00 531.00 L 593.00 536.00 L 561.00 537.00 L 554.00 532.00 L 556.00 509.00 L 568.00 486.00 L 588.00 469.00 Z M 912.00 360.00 L 893.00 368.00 L 866.00 397.00 L 861.00 412.00 L 866.00 435.00 L 1061.00 632.00 L 1058.00 643.00 L 877.00 825.00 L 863.00 844.00 L 861.00 861.00 L 868.00 879.00 L 897.00 907.00 L 925.00 912.00 L 939.00 906.00 L 1176.00 667.00 L 1184.00 651.00 L 1186.00 628.00 L 1174.00 599.00 L 937.00 365.00 Z M 368.00 343.00 L 351.00 344.00 L 334.00 353.00 L 83.00 606.00 L 73.00 629.00 L 74.00 650.00 L 83.00 668.00 L 328.00 911.00 L 347.00 920.00 L 374.00 916.00 L 402.00 890.00 L 411.00 867.00 L 405.00 843.00 L 204.00 643.00 L 202.00 636.00 L 413.00 422.00 L 419.00 408.00 L 415.00 380.00 L 387.00 351.00 Z M 666.00 196.00 L 661.00 201.00 L 658.00 207.00 L 658.00 218.00 L 660.00 223.00 L 720.00 292.00 L 727.00 295.00 L 733.00 295.00 L 740.00 292.00 L 743.00 289.00 L 746.00 283.00 L 746.00 276.00 L 744.00 271.00 L 694.00 201.00 L 690.00 197.00 L 680.00 193.00 L 674.00 193.00 Z M 819.00 132.00 L 814.00 132.00 L 805.00 135.00 L 799.00 141.00 L 795.00 150.00 L 778.00 276.00 L 778.00 288.00 L 779.00 291.00 L 786.00 297.00 L 792.00 298.00 L 797.00 297.00 L 804.00 291.00 L 806.00 287.00 L 817.00 237.00 L 835.00 164.00 L 837.00 160.00 L 837.00 148.00 L 834.00 141.00 L 826.00 134.00 Z M 1034.00 124.00 L 1027.00 121.00 L 1010.00 123.00 L 973.00 146.00 L 943.00 171.00 L 912.00 202.00 L 883.00 236.00 L 843.00 293.00 L 814.00 346.00 L 795.00 400.00 L 792.00 416.00 L 794.00 428.00 L 801.00 430.00 L 806.00 427.00 L 821.00 392.00 L 842.00 357.00 L 869.00 320.00 L 906.00 276.00 L 974.00 207.00 L 1036.00 160.00 L 1042.00 150.00 L 1043.00 139.00 L 1041.00 132.00 Z"/>
</svg>